M48
;Layer_Color=9474304
;FILE_FORMAT=2:5
INCH,LZ
;TYPE=PLATED
T1F00S00C0.00787
T2F00S00C0.01500
T3F00S00C0.02756
T4F00S00C0.04331
T5F00S00C0.05906
%
T01
X0039169Y0086004
Y0090335
X00435
X0047831
Y0086004
X00435
T02
X0007Y0003
X0027
X0047
X0028Y0039
X0018Y00395
X0008
X0068
X00635Y0028
X00725
X0091Y00355
X0087Y0003
X0107
X01095Y0013032
X0113
X01165
X01245
X0128
X01315
X0127Y0003
X0147
X0167
X0169Y0014
Y00175
Y0021
X0187
Y00175
Y0014
Y0003
X0207
X0205Y00145
Y0018
Y00215
X0137Y00385
Y0043
Y00525
X0067Y0003
X0227
X02225Y00145
Y0018
Y00215
X02395
Y0018
Y00145
X0258
Y0018
Y00215
X0267Y0003
X0287
X0307
X0247
X0242Y01755
Y0179
Y01825
X0227
Y0179
Y01755
Y019385
X0247
X0267
X0287
X0307
X0207
X02065Y01825
Y0179
Y01755
X0193
Y0179
Y01825
X0187Y019385
X0167
X0172Y01825
Y0179
Y01755
X01575
Y0179
Y01825
X01465
Y0179
Y01755
X0147Y019385
X0127
X0107
X0087
X0067
X0068Y01725
X00735Y01415
X00655Y0136532
X0069Y0132
X0095Y0141532
X011Y0132032
X01285
X01175Y01755
Y0179
Y01825
X01035Y0088532
Y0083532
Y0078532
X0106Y0081032
Y0086032
X009Y0100532
X0088Y0103032
X00825
X0085Y0100532
X008Y01005
X0078Y0058
X0048
X0025Y00735
X0027752Y0083248
X0037Y0103532
X00335Y0108032
X0042547
X0009Y0108
Y0098
Y0118
X00095Y0128
X0007Y019385
X0027
X0047
T03
X0019528Y0029528
X0029528Y0029528
X0039528
T04
X0056339Y0167323
X0046339
X0036339
X0016339
T05
X02785Y0059032
Y0079032
Y0117032
Y0137032
M30
